<svg width="1440" height="2399" viewBox="0 0 1440 2399" fill="none" xmlns="http://www.w3.org/2000/svg">
<g clip-path="url(#clip0_380_59)">
<path d="M1186.09 302.822C1185.68 297.334 1185.08 238.067 1184.75 171.117C1184.09 35.3 1184.59 44.4275 1176.79 28.2557C1168.31 10.6661 1158.15 2.89951 1141.33 1.14145C1134.44 0.421062 1137.42 0.241447 1158.1 0.13269L1184.32 0L1212.51 0.146667C1231.53 0.246444 1237.93 0.518864 1232.21 0.986816C1226.45 1.45676 1222.32 2.40362 1219.32 3.93918C1212.41 7.48415 1204.25 16.7395 1197.6 28.1741L1197.54 28.2861C1197.48 28.3969 1197.43 28.5066 1197.38 28.6152C1189.75 44.3356 1188.7 36.0065 1188.03 170.786L1188.03 170.888L1188.03 171.067L1188.03 171.231C1187.66 254.377 1186.84 313.05 1186.09 302.822Z" fill="white"/>
<path d="M352.563 149.387C352.172 157.91 351.39 291.084 350.826 445.329C349.818 721.465 349.955 735.189 345.806 747.465C345.4 748.668 344.952 749.856 344.459 751.276C338.681 767.897 328.971 777.657 314.842 781.044C306.885 782.952 296.578 783.21 158.702 784.946C84.0946 785.885 23.2032 786.805 23.3871 786.99C23.572 787.174 87.3229 788.209 165.056 789.289C301.41 791.183 311.696 791.157 319.91 795.27C320.932 795.782 321.922 796.358 323.119 797.009C337.765 804.984 346.031 824.642 347.494 854.984L348 863V863.728C348 865.846 346.349 867.597 344.235 867.721L331 868.5L344.269 869.281C346.37 869.404 348.015 871.133 348.034 873.237L348.175 888.492C348.524 899.077 349.103 934.854 349.465 967.995C349.826 1001.14 350.355 1028.02 350.638 1027.73C350.923 1027.45 351.657 991.921 352.269 948.784C352.715 917.298 353.044 886.613 353.385 873.302C353.439 871.167 354.753 869.487 356.889 869.475C433.081 869.038 1073.54 872.193 1083.44 873.138C1095.77 874.316 1103.04 877.115 1109.79 883.289C1119.77 892.418 1125.26 906.495 1127.32 928.284C1128.31 938.803 1130.45 1212.18 1130.43 1326.57C1130.42 1350.17 1130.66 1369.24 1130.95 1368.95C1131.24 1368.66 1132.13 1269.27 1132.93 1148.08C1134.35 932.852 1134.28 919.596 1138.35 907.758C1138.77 906.511 1139.25 905.281 1139.77 903.831C1146.75 884.601 1157.9 875.333 1176.54 873.277C1181.13 872.77 1227.62 871.608 1279.84 870.692C1374.24 869.038 1452.31 866.715 1425.77 866.35C1418.62 866.251 1371.39 865.329 1320.82 864.301C1233.51 862.525 1228.54 862.326 1222.33 860.364C1207.95 855.819 1199.58 846.709 1193.94 829.503C1193.55 828.287 1193.18 827.212 1192.85 826.127C1189.32 814.628 1189.24 802.071 1187.96 609.012L1187.87 594.3C1187.09 476.898 1186.33 376.793 1186.17 371.844C1186.02 366.894 1185.5 425.383 1185.03 501.818C1184.56 578.253 1183.82 679.033 1183.39 725.774C1182.66 805.549 1182.49 811.309 1180.61 819.756C1176.76 837.023 1171.21 847.407 1162.17 854.241C1155.24 859.481 1149.43 861.259 1135.92 862.273C1129.32 862.769 998.437 863.649 845.067 864.23C691.696 864.81 518.424 865.575 460.017 865.93L357.855 866.549C355.633 866.563 353.826 864.762 353.831 862.54L353.842 857.661C353.907 828.417 363.346 805.276 378.595 796.973C379.661 796.393 380.357 795.872 381.087 795.403C388.145 790.869 398.314 791.177 775.603 789.236C984.77 788.159 1156.81 787.111 1157.9 786.906C1159 786.702 1150.01 786.485 1137.92 786.425C1125.82 786.364 957.609 785.63 764.109 784.793C570.609 783.956 407.569 782.868 401.797 782.376C387.262 781.136 380.958 778.593 373.24 770.853C364.257 761.844 359.186 749.376 356.905 730.692C356.301 725.746 355.498 609.792 354.833 431.751C354.236 271.776 353.641 139.314 353.511 137.389C353.382 135.465 352.955 140.864 352.563 149.387Z" fill="white"/>
<path d="M665.999 2398.65C666.322 2398.87 601.084 2400 526.174 2400.02C451.265 2400.03 382.786 2400.57 374 2400.93V2395.73C391.86 2396.07 428.126 2396.22 509.784 2396.55C584.284 2396.86 649.888 2398.28 663.659 2398.59L663.439 2398.59C664.286 2398.61 664.962 2398.62 665.455 2398.63L665.999 2398.65Z" fill="white"/>
<path d="M343.085 1278.46C342.682 1283.95 342.083 1343.22 341.753 1410.17C341.085 1545.99 341.594 1536.86 333.795 1553.03C325.812 1569.58 316.347 1577.43 301.242 1579.77C300.293 1579.92 299.322 1580.04 298.328 1580.14C291.439 1580.87 294.421 1581.04 315.1 1581.15L341.324 1581.29L369.506 1581.14C388.534 1581.04 394.933 1580.77 389.208 1580.3C388.848 1580.27 388.495 1580.24 388.147 1580.21C382.935 1579.71 379.128 1578.79 376.321 1577.35C369.406 1573.8 361.249 1564.55 354.601 1553.11L354.536 1553C354.483 1552.89 354.43 1552.78 354.377 1552.67C346.745 1536.95 345.698 1545.28 345.034 1410.5L345.033 1410.4L345.033 1410.22L345.032 1410.05C344.658 1326.91 343.837 1268.24 343.085 1278.46Z" fill="white"/>
<path d="M29.1326 2039.47C29.1442 2039.12 29.1888 2039.07 29.213 2039.42C29.6412 2045.61 31.0865 2107.94 31.1055 2178.94C31.1255 2253.96 31.6034 2322.53 32.1182 2331.33H24.9983C25.4792 2313.44 25.6967 2277.13 26.1702 2195.36C26.6028 2120.75 28.6275 2055.06 29.0737 2041.27L29.0723 2041.49C29.0969 2040.64 29.1172 2039.96 29.1326 2039.47Z" fill="white"/>
<path d="M665.455 2398.63C665.81 2398.64 665.849 2398.67 665.495 2398.69C659.306 2398.99 597.072 2400.01 526.174 2400.02C451.265 2400.03 382.786 2400.57 374 2400.93V2395.73C391.86 2396.07 428.126 2396.22 509.784 2396.55C584.284 2396.86 649.888 2398.28 663.659 2398.59L663.439 2398.59C664.286 2398.61 664.962 2398.62 665.455 2398.63Z" fill="white"/>
<path d="M343.085 1278.46C342.682 1283.95 342.083 1343.22 341.753 1410.17C341.085 1545.99 341.594 1536.86 333.795 1553.03C325.812 1569.58 316.347 1577.43 301.242 1579.77C300.293 1579.92 299.322 1580.04 298.328 1580.14C291.439 1580.87 294.421 1581.04 315.1 1581.15L341.324 1581.29L369.506 1581.14C388.534 1581.04 394.933 1580.77 389.208 1580.3C388.848 1580.27 388.495 1580.24 388.147 1580.21C382.935 1579.71 379.128 1578.79 376.321 1577.35C369.406 1573.8 361.249 1564.55 354.601 1553.11L354.536 1553C354.483 1552.89 354.43 1552.78 354.377 1552.67C346.745 1536.95 345.698 1545.28 345.034 1410.5L345.033 1410.4L345.033 1410.22L345.032 1410.05C344.658 1326.91 343.837 1268.24 343.085 1278.46Z" fill="white"/>
<path d="M23.2417 2351.36C19.2927 2368.78 13.7027 2379.18 4.71631 2385.85L1.61876 2388.15L1.6011 2388.16L0.874772 2388.7L-1 2389.35H-5V2402.85H0.00195312L15.7437 2402.82C24.4022 2402.81 151.123 2402.15 297.348 2401.35C323.032 2401.21 348.792 2401.07 374 2400.93V2395.73C353.552 2395.62 332.864 2395.51 312.34 2395.4C93.5673 2394.21 71.9365 2393.95 66.4673 2392.42C48.1588 2387.31 38.061 2373.65 33.2944 2347.55C32.7691 2344.67 32.399 2340.81 32.1182 2331.33H24.9983C24.6432 2344.33 24.1349 2347.42 23.2417 2351.36Z" fill="white"/>
<path d="M1.88281 1593.24C5.48395 1594.38 14.0455 1604.68 17.4907 1612C19.3677 1616 21.8785 1623.77 23.0688 1629.27C24.0053 1633.59 24.5387 1636.36 24.9126 1650.26C25.3935 1668.15 25.611 1704.46 26.0845 1786.24C26.5171 1860.84 28.5416 1926.54 28.9878 1940.33L28.9863 1940.11C29.0109 1940.96 29.0315 1941.63 29.0469 1942.13L29.0649 1942.67C29.3878 1942.99 30.9998 1877.66 31.0198 1802.65C31.0398 1727.64 31.4765 1659.06 31.9912 1650.26C32.5529 1640.64 33.7423 1630.92 34.9736 1625.87C40.2889 1604.08 51.1595 1591.93 68.6265 1588.28C81.4688 1585.59 331.348 1585.37 765.105 1587.66C1124.14 1589.56 1167.84 1589.62 1260.12 1588.29C1322.52 1587.39 1363.16 1587.19 1366.07 1587.75C1388.63 1592.09 1400.03 1607.5 1403.83 1638.77C1404.09 1640.92 1404.32 1644.49 1404.52 1650.26C1405 1668.15 1405.22 1704.46 1405.69 1786.24C1406.12 1860.84 1408.15 1926.54 1408.59 1940.33L1408.59 1940.11C1408.62 1940.96 1408.64 1941.63 1408.65 1942.13L1408.67 1942.67C1408.99 1942.99 1410.61 1877.66 1410.63 1802.65C1410.65 1727.64 1411.15 1659.06 1411.66 1650.26C1411.82 1643.79 1411.99 1639.92 1412.17 1638.55C1415.17 1616.04 1422.39 1601.37 1434.28 1593.67L1440.26 1590.44V1578.78L1381.54 1578.77C1349.79 1578.77 1187.47 1579.48 1020.83 1580.35C744.092 1581.8 691.666 1581.8 415.642 1580.35C406.456 1580.3 397.284 1580.25 388.147 1580.21C388.495 1580.24 388.848 1580.27 389.208 1580.3C394.933 1580.77 388.534 1581.04 369.506 1581.14L341.324 1581.29L315.1 1581.15C294.421 1581.04 291.439 1580.87 298.328 1580.14C299.322 1580.04 300.293 1579.92 301.242 1579.77C180.922 1579.18 80.6105 1578.77 56.7205 1578.77L-5 1578.78V1593.24H1.88281Z" fill="white"/>
<path d="M774.001 2398.73C773.678 2398.95 838.916 2400.08 913.826 2400.1C988.735 2400.11 1057.21 2400.65 1066 2401.01V2395.81C1048.14 2396.15 1011.87 2396.3 930.217 2396.63C855.716 2396.94 790.112 2398.36 776.342 2398.67L776.562 2398.67C775.714 2398.69 775.038 2398.7 774.545 2398.71L774.001 2398.73Z" fill="white"/>
<path d="M774.545 2398.71C774.19 2398.72 774.151 2398.75 774.505 2398.77C780.694 2399.07 842.928 2400.08 913.826 2400.1C988.735 2400.11 1057.21 2400.65 1066 2401.01V2395.81C1048.14 2396.15 1011.87 2396.3 930.217 2396.63C855.716 2396.94 790.112 2398.36 776.342 2398.67L776.562 2398.67C775.714 2398.69 775.038 2398.7 774.545 2398.71Z" fill="white"/>
<path d="M1435.28 2385.93C1426.3 2379.26 1420.71 2368.85 1416.76 2351.44C1415.87 2347.5 1415.36 2344.41 1415 2331.41C1414.52 2313.52 1414.3 2277.21 1413.83 2195.43C1413.4 2120.83 1411.37 2055.13 1410.93 2041.34L1410.93 2041.57C1410.9 2040.72 1410.88 2040.04 1410.87 2039.55C1410.86 2039.2 1410.81 2039.15 1410.79 2039.5C1410.36 2045.69 1408.91 2108.02 1408.89 2179.02C1408.87 2254.04 1408.4 2322.61 1407.88 2331.41C1407.6 2340.89 1407.23 2344.75 1406.71 2347.63C1401.94 2373.73 1391.84 2387.39 1373.53 2392.5C1368.06 2394.03 1346.43 2394.29 1127.66 2395.48C1107.14 2395.59 1086.45 2395.7 1066 2395.81V2401.01C1091.21 2401.15 1116.97 2401.29 1142.65 2401.43C1288.88 2402.23 1415.6 2402.89 1424.26 2402.9L1440 2402.93H1445V2389.43H1441L1439.13 2388.78L1438.4 2388.24L1438.38 2388.23L1435.28 2385.93Z" fill="white"/>
</g>
<defs>
<clipPath id="clip0_380_59">
<rect width="1440" height="2399" fill="white" transform="matrix(-1 0 0 1 1440 0)"/>
</clipPath>
</defs>
</svg>
